<svg xmlns="http://www.w3.org/2000/svg" width="78" height="116" viewBox="0 0 78 116"><ellipse cx="40" cy="105" rx="25" ry="7" fill="#071008" opacity=".45"/><path d="M34 103h12V61H34z" fill="#704624" stroke="#382718" stroke-width="3"/><g stroke="#173827" stroke-width="4" stroke-linejoin="round"><path d="M40 3L9 51h18L5 75h25L12 96h57L48 75h24L53 51h18z" fill="#28553a"/><path d="M40 14L20 49h13L15 71h17L23 90h35L44 71h15L46 49h14z" fill="#397346"/></g><path d="M40 17L31 47h9L28 69h10L33 87h13l-5-18h9L45 47h8z" fill="#70934d"/></svg>